<svg xmlns="http://www.w3.org/2000/svg" viewBox="0 0 4680 3120"><g><path fill="#ffda88" d="M4109.41 1754.73a1385.11 1385.11 0 0 1-95.34 167.44 1436.93 1436.93 0 0 1-117.34 152.89l-16 18.07c-2.62 3-5.43 5.92-8.18 8.86l-8.27 8.78-16.54 17.56c-5.63 5.73-11.36 11.37-17 17.08s-11.33 11.42-17.08 17L3796.1 2179l-8.77 8.28c-2.93 2.76-5.83 5.55-8.87 8.19l-18 16-9 8c-1.51 1.33-3 2.7-4.52 4l-4.62 3.89-18.5 15.64-9.24 7.78c-3.07 2.6-6.27 5-9.4 7.56l-18.9 15-9.46 7.51-9.64 7.27-19.28 14.53-4.83 3.63-2.41 1.82-2.45 1.75-9.84 7-19.67 14c-105.58 73.86-219.14 136.16-337.09 188.21l-22.18 9.61c-7.41 3.18-14.77 6.47-22.26 9.44l-22.39 9.13c-7.47 3-14.91 6.15-22.45 9l-22.57 8.68c-7.53 2.89-15 5.84-22.64 8.51l-22.74 8.21-11.37 4.11c-3.78 1.39-7.62 2.62-11.43 3.94l-22.89 7.79-11.45 3.89c-3.81 1.31-7.67 2.48-11.5 3.72l-23 7.34-11.52 3.66c-3.84 1.22-7.72 2.32-11.57 3.49l-23.17 6.91-11.59 3.46c-3.86 1.15-7.75 2.21-11.63 3.32-7.76 2.18-15.5 4.42-23.27 6.54l-23.35 6.3q-46.76 12.34-93.89 23.16t-94.63 19.94q-94.93 18.35-190.87 30.78a3330.28 3330.28 0 0 1-385.37 27.33c-32.2.48-64.41.41-96.6 0q-24.15-.32-48.28-1c-16.07-.49-32.23-1-48.21-1.72l-12-.49-12-.38-24.08-.75c-8-.29-16.09-.71-24.13-1.06l-12.07-.54-6-.28-6-.36c-16.08-1-32.16-1.81-48.22-3.12l-24.09-1.84-24.06-2.18-12-1.1-12-1.28-24-2.56-24-2.94-12-1.49-12-1.67c-8-1.13-16-2.19-23.93-3.37l-23.87-3.74c-8-1.2-15.89-2.64-23.83-4l-11.9-2.07-6-1-5.93-1.14-23.73-4.57c-7.9-1.57-15.77-3.3-23.66-5-3.94-.84-7.88-1.64-11.81-2.52l-11.78-2.71-11.77-2.71-5.89-1.35-5.86-1.47-23.45-5.87-23.33-6.3c-7.8-2-15.5-4.42-23.24-6.66l-11.6-3.38-11.53-3.6-11.53-3.62-5.77-1.82-5.72-1.93c-7.63-2.59-15.28-5.11-22.9-7.76l-22.73-8.21c-3.79-1.36-7.53-2.88-11.29-4.31l-11.28-4.35q-45-17.7-88.46-39c-57.84-28.46-113.17-62.3-164-102.12s-96.92-85.78-135.71-137.47l-7.21-9.74c-2.41-3.24-4.65-6.6-7-9.9-4.7-6.56-9.07-13.36-13.52-20.1l-1.67-2.54-1.59-2.57-3.19-5.15-3.19-5.15-1.6-2.58-1.52-2.62-6.1-10.48-1.52-2.61-1.45-2.66-2.9-5.32c-7.82-14.15-14.92-28.68-21.67-43.36l-4.93-11.08c-.84-1.84-1.6-3.71-2.37-5.58l-2.31-5.61c-3.17-7.43-5.93-15-8.83-22.58-1.41-3.79-2.7-7.62-4.05-11.43l-2-5.72c-.66-1.91-1.25-3.84-1.87-5.76l-3.71-11.55-3.42-11.63-1.7-5.82-1.56-5.86c-1-3.91-2.1-7.81-3.08-11.73-1.85-7.87-3.85-15.7-5.43-23.63a720.35 720.35 0 0 1-13.68-96c-4.73-64.53-1-129.59 9.94-193.35s29.22-126.25 53.52-186.25l4.63-11.22c1.54-3.75 3.21-7.43 4.8-11.15 3.17-7.45 6.62-14.78 10-22.15 1.71-3.66 3.49-7.3 5.23-10.95l2.63-5.48 2.71-5.43 5.46-10.85 5.65-10.75 2.84-5.37 2.93-5.32c2-3.55 3.88-7.11 5.87-10.64 4-7 8-14.09 12.22-21 8.26-13.94 17-27.61 26-41.06l13.66-20.07 3.41-5 3.56-4.92 7.14-9.82 7.15-9.82c1.2-1.62 2.35-3.3 3.6-4.88l3.72-4.8 14.76-19.24 1.86-2.4 1.93-2.34 3.86-4.68 7.73-9.37 7.74-9.36c2.59-3.11 5.31-6.11 8-9.16l16-18.26 16.55-17.78c2.77-3 5.49-6 8.3-8.87l8.54-8.64 8.54-8.63 4.27-4.32c1.42-1.44 2.83-2.89 4.31-4.27 11.76-11.14 23.28-22.54 35.44-33.23 23.88-21.89 49-42.4 74.52-62.33l19.37-14.68c1.62-1.21 3.21-2.46 4.86-3.65l4.94-3.53 9.88-7.06c13.08-9.57 26.65-18.43 40.07-27.5 3.34-2.3 6.8-4.41 10.21-6.59l10.27-6.5 10.26-6.5 2.55-1.58 2.61-1.56 5.22-3.11 20.89-12.43 2.62-1.54 2.65-1.48 5.31-3 10.62-5.91 10.61-5.92c1.76-1 3.57-1.93 5.36-2.86l5.39-2.81 21.56-11.24c7.24-3.64 14.56-7.12 21.84-10.69l10.93-5.31c3.65-1.75 7.37-3.37 11-5.06l22.16-10c7.45-3.19 14.94-6.28 22.42-9.42l11.21-4.7c3.76-1.51 7.56-2.94 11.34-4.41l22.69-8.76 22.92-8.13 11.47-4.06 11.57-3.74 23.16-7.46 23.36-6.8 11.69-3.39 11.78-3.06L1662 928l23.73-5.41 11.87-2.7 12-2.35 23.89-4.69 24-4c4-.65 8-1.35 12-2l12.07-1.62c8-1.08 16.09-2.2 24.15-3.23l24.23-2.51c4-.4 8.08-.86 12.13-1.22l12.14-.87 24.3-1.72c8.13-.39 16.24-.88 24.39-1.08s16.29-.39 24.43-.5h18.32l6.11.12c8.14.11 16.28.43 24.41.72s16.26.77 24.37 1.34q24.35 1.59 48.55 4.19c16.13 1.72 32.2 3.72 48.19 5.86l47.64 6.46 23.75 3.22c7.86 1 15.7 1.85 23.48 2.53s15.54 1.27 23.2 1.51 15.27.29 22.71-.16c14.88-.87 29.22-3.39 42.1-8.65l.59-.24.67-.21a327 327 0 0 0 48.06-19.54c15.7-7.76 31.08-16.59 46.44-25.8 30.72-18.41 61.32-38.59 94.68-55.55l.59-.3.64-.26 17.78-7.11c6-2.44 12-4.65 18-6.93l36-13.61c12-4.64 24.17-8.76 36.26-13.07l18.26-6.19c6.1-2 12.16-4.17 18.28-6.13q73.29-24 148.26-42.53c6.22-1.62 12.5-3 18.75-4.5l18.79-4.38 18.85-4.11 9.42-2c3.15-.67 6.31-1.28 9.46-1.92l18.91-3.8c6.31-1.27 12.65-2.36 19-3.54l9.49-1.75c3.16-.59 6.33-1.16 9.5-1.67l19-3.15c6.34-1.1 12.71-2 19.07-3s12.73-1.92 19.1-2.81l19.13-2.52 9.57-1.25 9.59-1.1 19.18-2.19 19.22-1.87 9.6-.94 9.63-.77 19.24-1.54c51.37-3.56 102.91-5.05 154.41-3.56l9.66.26 4.82.13 4.83.22 19.3.87c6.43.28 12.86.78 19.29 1.18l9.64.62c3.21.22 6.42.53 9.63.78l19.25 1.74 19.23 2c6.41.6 12.8 1.45 19.2 2.21s12.79 1.49 19.17 2.44c102.09 13.91 202.85 39.52 298.2 78.9a999.45 999.45 0 0 1 137.92 69.65 879.36 879.36 0 0 1 124.56 91.24 773.48 773.48 0 0 1 105.14 112.83 711.14 711.14 0 0 1 43.14 63.93 661.34 661.34 0 0 1 35.79 68.26 673.46 673.46 0 0 1 27.59 71.88A662.91 662.91 0 0 1 4169 1305a637.24 637.24 0 0 1 10.16 76.19 697.07 697.07 0 0 1-5.47 153.23l-1.34 9.5-1.62 9.46-1.63 9.45c-.28 1.57-.53 3.15-.84 4.72l-.95 4.7c-1.29 6.27-2.52 12.55-3.86 18.8l-4.38 18.67q-9.29 37.23-21.68 73.57-12.63 36.25-27.98 71.44Zm-2.57-1.18c10.1-23.37 19.43-47.11 27.76-71.19 8.12-24.15 15.28-48.62 21.29-73.37l4.28-18.62c1.29-6.24 2.48-12.49 3.73-18.74l.92-4.68c.3-1.56.53-3.14.8-4.71l1.55-9.42 1.56-9.42 1.26-9.46a677.34 677.34 0 0 0 6.24-76.06 659.12 659.12 0 0 0-13.3-151.61 645.8 645.8 0 0 0-48.43-144 672.08 672.08 0 0 0-80.29-128.7 756 756 0 0 0-105.61-108.7A864.25 864.25 0 0 0 3804.46 838c-43.68-25.45-89.56-47-136.57-65.54-94.21-36.76-193.31-60.36-293.63-72.72-6.26-.86-12.55-1.48-18.83-2.19s-12.56-1.44-18.86-2l-18.88-1.72-18.92-1.38c-3.15-.22-6.3-.48-9.46-.66l-9.46-.51-9.47-.51c-3.16-.17-6.31-.38-9.47-.47l-19-.7-4.74-.17-4.74-.09-9.48-.18c-12.64-.34-25.29-.22-37.93-.26-6.33 0-12.65.19-19 .28l-9.49.16-9.48.31-19 .64-18.95 1-9.48.48-9.46.65-18.94 1.3c-100.92 7.89-201.1 24.88-299.41 49.36q-73.73 18.45-146 42.22c-6 1.93-12 4-18 6.05l-18 6.12c-12 4.26-23.94 8.31-35.76 12.91l-35.59 13.46c-5.94 2.26-11.88 4.44-17.69 6.8l-17.78 7.12 1.24-.55c-15.66 7.91-31.05 16.8-46.41 26s-30.75 18.88-46.49 28.29-31.82 18.6-48.64 26.87a351.68 351.68 0 0 1-52.62 21.21l1.27-.45a140.83 140.83 0 0 1-25.84 7.53 190.57 190.57 0 0 1-26 3.11c-8.59.48-17.05.38-25.42.09s-16.64-.94-24.84-1.7-16.32-1.72-24.38-2.73l-24-3.34-47.76-6.68c-15.82-2.2-31.6-4.24-47.38-6s-31.57-3.22-47.37-4.34c-7.89-.59-15.8-1-23.7-1.42s-15.81-.68-23.71-.82l-5.93-.15-5.93-.06c-4 0-7.91-.09-11.86-.07-7.9.07-15.81.09-23.71.36s-15.81.58-23.72.91l-23.74 1.55-11.88.78c-3.95.32-7.89.75-11.84 1.13l-23.67 2.3-23.6 3-11.8 1.52c-3.92.58-7.83 1.24-11.75 1.86l-23.5 3.75-23.38 4.45-11.69 2.23-11.46 2.61-23.24 5.16-23.09 5.84-11.54 2.92-11.45 3.26-22.91 6.51-22.72 7.18-11.36 3.59-11.25 3.92-22.5 7.83-22.28 8.46c-3.71 1.42-7.43 2.79-11.13 4.25l-11 4.54c-7.33 3-14.7 6-22 9.11l-21.77 9.7c-3.63 1.63-7.28 3.18-10.88 4.88l-10.75 5.14c-7.16 3.45-14.36 6.81-21.48 10.34l-21.21 10.88-5.31 2.72c-1.77.91-3.54 1.8-5.27 2.78l-10.45 5.73-10.46 5.74-5.22 2.86-2.62 1.43-2.57 1.5-20.59 12-5.15 3-2.58 1.51-2.53 1.58-10.17 6.34-10.13 6.29c-3.37 2.12-6.79 4.15-10.08 6.38-13.24 8.8-26.64 17.38-39.55 26.66l-9.77 6.85-4.89 3.41c-1.62 1.15-3.2 2.36-4.8 3.54l-19.15 14.17-4.79 3.55-4.69 3.68-9.38 7.38-9.37 7.37c-1.56 1.23-3.14 2.44-4.68 3.7l-4.58 3.82-18.34 15.26c-3.09 2.51-6 5.17-9 7.79l-9 7.89c-12.08 10.35-23.52 21.42-35.2 32.22-1.47 1.34-2.87 2.74-4.29 4.14l-4.24 4.2-8.49 8.38-8.48 8.39c-2.8 2.83-5.51 5.74-8.27 8.6l-16.49 17.25-16 17.73c-2.65 3-5.37 5.88-8 8.9l-7.72 9.09-7.72 9.1-3.86 4.56-1.93 2.27-1.86 2.33-14.87 18.67-3.73 4.66c-1.25 1.54-2.4 3.17-3.6 4.75l-7.15 9.56-7.15 9.56-3.57 4.78-3.42 4.89-13.7 19.56c-9 13.13-17.77 26.4-26.07 40-4.24 6.73-8.22 13.61-12.29 20.44-2 3.44-3.94 6.91-5.91 10.36l-3 5.19-2.86 5.23-5.71 10.48-5.51 10.58-2.74 5.3-2.66 5.34c-1.76 3.57-3.56 7.11-5.3 10.69-3.39 7.2-6.88 14.35-10.1 21.63-1.62 3.63-3.32 7.23-4.88 10.89l-4.71 11c-6.15 14.68-12.06 29.46-17.41 44.46-2.79 7.45-5.26 15-7.86 22.54l-3.66 11.37-1.83 5.68-1.56 5.69-3.42 11.44-3.2 11.51c-1.1 3.83-2.08 7.68-3.07 11.54s-2 7.7-2.94 11.58c-1.81 7.75-3.71 15.48-5.31 23.28-.81 3.9-1.73 7.78-2.45 11.69l-2.27 11.73c-11.56 62.63-16 126.67-11.91 190.28a678.79 678.79 0 0 0 38.46 186.62 640.89 640.89 0 0 0 39.1 87.17l2.84 5.26 1.42 2.63 1.5 2.58 6 10.36 1.5 2.59 1.56 2.54 3.13 5.1 3.13 5.09 1.57 2.55 1.63 2.5c4.37 6.67 8.66 13.39 13.28 19.89 2.29 3.26 4.5 6.59 6.87 9.8l7.08 9.63c38.25 51.07 83.71 96.67 134.1 135.88 50.29 39.39 105.31 72.59 162.78 100.5a1188.52 1188.52 0 0 0 178.8 68.84c61.26 18.4 123.78 32.45 186.81 43.29l5.91 1 5.92 1 11.85 1.88c7.9 1.24 15.78 2.57 23.71 3.62l23.76 3.33 23.8 3 11.91 1.47 11.93 1.28 23.85 2.53 23.9 2.16 11.94 1.08 12 .9 23.92 1.77 24 1.43c16 1 32 1.61 47.93 2.34l6 .27 6 .17 12 .36c8 .21 16 .5 24 .66l24.06.37 12 .18 12.06.3q96.15 2.54 192.06 0a3632.67 3632.67 0 0 0 382.52-30c126.79-16.85 252.68-40.55 376.54-72.29s245.7-71.48 363.64-120.94q88.43-37.09 173.47-81.77a1853.16 1853.16 0 0 0 164.81-98.21l19.82-13.53 9.92-6.76 2.48-1.7 2.43-1.75 4.86-3.52 19.46-14 9.74-7 9.53-7.29 19.06-14.6c3.16-2.46 6.4-4.82 9.5-7.35l9.32-7.57 18.65-15.13 4.66-3.78c1.56-1.26 3-2.6 4.57-3.89l9.1-7.84 18.19-15.69c3.07-2.57 6-5.3 8.95-8l8.86-8.11 17.73-16.22c5.81-5.51 11.51-11.14 17.27-16.7s11.5-11.15 17.19-16.79l16.69-17.29 8.35-8.64c2.77-2.89 5.6-5.73 8.25-8.73l16.15-17.81a1367.08 1367.08 0 0 0 118.27-151.45 1332.67 1332.67 0 0 0 95.36-166.97Z"/><path fill="#fff2d6" d="M2263.56 380.24c331.65-102.47 484.56 217.1 219.57 390.43-71.48 41.14-157.81 56.11-244.55 61.88-368.36 19.29-494.65-306.55 24.98-452.31Z"/><path fill="#fff2d6" d="M3992.53 1766.51c-201.82 457.72-608.7 733.57-1067.16 874.81-145.94 45-297.1 76.27-448.55 95.47-1.63.21-3.26.42-4.89.61-61.89 7.75-123.83 13.46-185.46 17.26q-6 .38-12 .72c-100.72 5.8-200.58 6.5-298.09 2.55-403.2-7.09-675.68-109.31-847.07-259.7-320.1-280.83-287.59-729.62-95.44-1040.31 188.39-307.34 529.45-524.7 886.3-545.37 86.68-5.32 157.5 4.39 216 13.36 19 2.92 36.76 5.75 53.32 8 44.09 5.9 79.81 7.4 109.51-5.76 29.37-9.79 56.55-25.19 83.16-42.21 18.52-11.83 36.77-24.45 55.26-36.49 13.05-8.49 26.21-16.69 39.69-24.12l1.39-.61q8.45-3.74 16.87-7.34c1.32-.58 2.63-1.14 4-1.7q26.19-11.2 52.18-21.47 4.62-1.83 9.22-3.61 8.64-3.37 17.28-6.63c629.84-238.07 1161.43-61.61 1377.14 291 117.07 191.32 141.1 434.54 37.34 691.54Z"/><path fill="#ffe6ac" d="M3992.53 1766.51c-201.82 457.72-608.7 733.57-1067.16 874.81-145.94 45-297.1 76.27-448.55 95.47-1.63.21-3.26.42-4.89.61-61.89 7.75-123.83 13.46-185.46 17.26q-6 .38-12 .72c-100.72 5.8-200.58 6.5-298.09 2.55-403.2-7.09-675.68-109.31-847.07-259.7 872.3-40.66 2405.9-258.06 2764.69-1265.63 20.78-58.37 41.19-110.8 61.2-157.66 117.06 191.35 141.09 434.57 37.33 691.57Z"/><path fill="#fdb23d" d="M3968.51 1213.75c-15.54 25.07-57.93 176.08-104.18 310.1-9.18 26.6-18.51 52.53-27.82 76.68-26.62 1.85-56.88 3.26-88.59 4.49-36 1.4-73.82 2.55-110.35 3.83-42.82 1.5-83.83 3.15-117.88 5.55-1-22.6-2-46.19-3.05-70.32-3.78-87.18-7.87-181.4-11.36-261.61v-.15c-.58-13.38-1.14-26.37-1.69-38.86 63-4 129-8.41 195.7-12.86 32.07-2.13 64.3-4.27 96.43-6.35 58.43-3.79 116.54-7.4 172.79-10.5Z"/><path fill="#f28b0f" d="M3864.33 1523.85c-9.18 26.6-18.51 52.53-27.82 76.68-92.25 6.4-228.12 7.62-316.82 13.87-1-22.6-2-46.19-3.05-70.32 10.2 25.09 25.9 39.61 49.6 34.3 96.8-21.66 149.33 63.8 284.76-44.42q6.9-5.52 13.33-10.11Z"/><path fill="#fdb23d" d="M3292.38 1138.75c3.06 1 218.85 109.56 212 104.63 166.68-9.89 306-19.48 464.11-29.7C3649 1088 3700.36 1098.5 3623.13 1107.12c-108.52 10.39-223.02 21.3-330.75 31.63Z"/><path fill="#f28b0f" d="M3503.58 1243.46c38.56-5.41 77.2-9.41 115.88-13s77.39-6.48 116.13-9 77.51-4.49 116.32-5.94 77.66-2.35 116.59-1.88c-38.55 5.42-77.2 9.43-115.87 13s-77.39 6.49-116.14 9-77.51 4.47-116.32 5.91-77.66 2.35-116.59 1.91Z"/><path fill="#029d99" d="M3796.57 1215.45c-.28 2.86-.57 5.79-.86 8.75-1.08 11.18-2.19 23-3.35 35.46-9.41 100.64-21.94 237.67-44.44 345.31-36 1.4-73.82 2.55-110.35 3.83 29.1-103.69 45.83-224.57 57.95-327.87 1.95-16.59 3.78-32.73 5.52-48.28 1.17.29-.78-1.17-1.76-2.1a3.69 3.69 0 0 1-.28-.28c-.32-.33-.38-.52.12-.4a551.64 551.64 0 0 0-64.62-33.33c-11.23-4.88-22.7-9.41-34.75-13.8-6-2.18-12.1-4.32-18.41-6.45 7.67-1.11 14.6-2.25 20.9-3.4l3.15-.58c36.39-6.81 51.48-13.33 70.94-11.26 9.52 1 20.09 4.08 34.71 10.18 3.58 1.49 7.38 3.15 11.47 5 17.56 8 40.39 19.57 71.9 35.85-1.83-.37 4 3.81 2.16 3.37Z"/><path fill="#017771" d="M3722.51 1176.3c-26.93 7.58-61.79 17.59-88 20.29-11.23-4.88-22.7-9.41-34.75-13.8a19.72 19.72 0 0 0-3.7-2.22l6.19-7.63 3.15-.58c27.3-5 49.79-9.86 70.94-11.26 9.52 1 20.09 4.08 34.71 10.18 3.57 1.49 7.37 3.15 11.46 5.02Z"/><path fill="#029d99" d="M3840.83 1161.36c-55.58 7.91-110.71 10.31-165.8 14.59q-6.6.52-13.2 1.07c-36.51 6-48.72 5.53-73.26.72-11.64-2.28-26-5.55-47.11-9.59 20.82-6.55 53.23-14.41 89.66-20.44A718.44 718.44 0 0 1 3708 1139c53.08-2.9 104 1.78 132.83 22.36Z"/><path fill="#017771" d="M3708 1139c-6.24 9.59-18.28 26.2-33 37q-6.6.52-13.2 1.07c-36.51 6-48.72 5.53-73.26.72l42.55-30A718.44 718.44 0 0 1 3708 1139Z" opacity=".41"/><path fill="#f28b0f" d="M3293.13 1138.82c9.24 109.16-12.11 225.79-2.77 343.76 35.23 19.28 193.72 112.3 229.33 131.82l-16.11-370.94Z"/><path fill="#029d99" d="M3594.14 1180.73c-13.38 1.25-26.69 2.77-39.95 4.33-30.52 3.59-60.79 7.43-91.15 8.87-23.51 2-45.08-3-54.32 5-2.7 2.35-4.36 5.81-4.69 10.9-4.73 27.62 12.49 242.05 21.23 352.48-.22.93-43.27-22.1-63-34.33-.45-115-34.2-231.92-6.82-344.25 3.24-5.94 2.26-9 8.75-11 8.61-2.72 30.4-3.61 92.82-7 12.1.64 29.41-1.34 47.92-2.76 33.99-2.62 72.07-3.32 89.21 17.76Z"/><path fill="#017771" d="M3594.14 1180.73c-13.38 1.25-26.69 2.77-39.95 4.33-14.84-6.66-35-15.72-49.29-22.1 34.02-2.61 72.1-3.31 89.24 17.77Z" opacity=".41"/><path d="M3677.96 1084.09h80.17v4h-80.17z" transform="rotate(-70.22 3718.046 1086.084)"/><path fill="#017771" d="M3663 1015.28c-37.09 44.56-64.18 124.4-74 154.38 30.26 20.36 69.5-78.69 84.12-92.94 16.09-30 45.53-61.1 26.72-69.12-9.35-4.77-26.53-2.05-36.84 7.68Z"/><path fill="#029d99" d="M3749.44 1068.72c25.24-73-55.16-57.13-71.64-63.55 44.19 42-63.35 154.81-76.89 177.36 47.09 10.96 138.83-77.4 148.53-113.81Z"/><path fill="#017771" d="M3492.4 1056.07c-1.31-15.4 17.49-18.42 29.81-14.57 61.13 16.1 95.7 121.76 73.5 139.79-51.88-32.54-32.08-85.37-93.12-110.86-4.95-3.24-9.71-8.43-10.19-14.36Z"/><path fill="#029d99" d="M3454.74 1078.84c18.5 44.44 77.82 108.31 141.25 99.19-25.13-34.31-118.21-91.56-73.78-138.47-24.61-2.39-85.28 2.34-67.47 39.28Z"/><path fill="#fff" d="M3550.17 1369.29a36.33 36.33 0 0 1-29.09 35.59l-10.77-71.73c20.75-2.26 40.09 14.85 39.86 36.14ZM3608.25 1493.62c-1.48 24-34.1 21.65-34.6 0 1.48-23.99 34.1-21.62 34.6 0ZM3838 1413.12c-1.47 24-34.1 21.65-34.6 0 1.47-23.99 34.09-21.65 34.6 0ZM3648 1412.15c2.91 1.42 1.53 7-2.8 5.54-2.95-1.42-1.58-7.05 2.8-5.54ZM3566.25 1578.38c2.9 1.42 1.53 7-2.8 5.54-2.91-1.42-1.54-7.05 2.8-5.54ZM3889.11 1272.36c-25.1 23.69-61.08-.27-54.78-29.76q30-5.07 59.64-10a32.5 32.5 0 0 1-4.86 39.76Z"/><path fill="#f28b0f" d="M3505.28 1282.41v-.3a2.63 2.63 0 0 1 0 .3Z"/><path fill="#017771" d="M3425.26 1562.34c-.22.93-43.27-22.1-63-34.33-.45-115-34.2-231.92-6.82-344.25 3.24-5.94 2.26-9 8.75-11 5.45 8.29 15.36 15.7 32.46 20.13a33.15 33.15 0 0 1 12.1 6.12c-2.7 2.35-4.36 5.81-4.69 10.9-4.76 27.57 12.46 242 21.2 352.43Z" opacity=".58"/><path fill="#017771" d="M3795.71 1224.2c-1.08 11.18-2.19 23-3.35 35.46l-96.84 21.34c1.95-16.59 3.78-32.73 5.52-48.28 1.17.29-.78-1.17-1.76-2.1a3.69 3.69 0 0 1-.28-.28l.12-.4Z" opacity=".58"/><path fill="#f28b0f" d="m2628.11 2217.48-.77.23c-72.78 21.48-185.57 53.7-313.33 89.85-122 34.51-257.61 72.61-385.09 108.38l-103.46 29-1.48.42c-67.37 18.9-130.35 36.55-185.15 51.95-77.44 21.77-138.59 39-172.88 48.93-19.49 5.64-30.31 8.88-30.49 9.22-3.87.08-44.53-141.45-90.75-306-63.25-225.16-136.93-493.43-141-500.83-1-.8 14.58-6 42.94-14.71h.08c32.76-10 82.56-24.59 143.7-42.17l.42-.12c192.61-55.41 497.33-140.65 735.75-207.49q29.22-8.18 57-16c165.75-46.48 288.17-81 297.23-84.57a.64.64 0 0 1 .06-.22c.09-.28.24-.31.46-.11 2.83 2.56 15.89 44.75 34.48 108.6 63.34 217.58 190.93 686.82 197.11 698.42 1.75 1.02-30.12 11.06-84.83 27.22Z"/><path fill="#97141a" d="M1248.12 1748.39h1331.67v128.86H1248.12z" transform="rotate(-15.82 1913.957 1812.824)"/><path fill="#fdb23d" d="M2740.48 2185.37q-56.8 16.26-112.37 32.11l-.77.23c-106.16 30.26-209.63 59.56-313.08 88.82-126.82 35.86-253.6 71.64-385.23 109l-68.79 19.55-34.78 9.85-1.48.42-185.29 52.5-97.69 27.7c-37.29 9.4-65.21 20.4-75 20.69-2.69.1-4-.63-3.84-2.39-19.93-70.31-59.22-209-100.85-355.94-47.69-168.28-98.43-347.36-126.63-446.9-1.57-1.19 2.69-3.58 12-7.06h.08c22.34-8.3 73.58-22.81 143.7-42.17l.42-.12c33.43-9.22 71.13-19.56 112-30.84 82-22.62 176.81-49.1 275.86-78.28 30.83-8.41 61.83-17 92.74-25.62 87.71-24.5 174.72-49.48 255.11-72.75q29.21-8.45 57.14-16.55c134.21-38.94 243.8-71 297.14-84.22l.46-.11c23.75-5.89 36.2-8 34.5-5.3 4.23 16.21 9.16 34.5 14.68 54.47 59.3 214.7 184.94 624.54 209.97 752.91Z"/><path fill="#f28b0f" d="M1278.73 1739.72H2610.4v128.86H1278.73z" transform="rotate(-15.82 1944.578 1804.167)"/><path fill="#f28b0f" d="M1918.44 2227.27c-.07 0-170.42 48.27-281.37 79.72-63.29 19.69-105.11 23.45-108.68 40.89-7.45 51.42 48.71 24.38 60.73 22l169.14-47.88c100.45-29.7 176.56-47 182.89-54.57 18.91-18.37-.4-46.51-22.71-40.16ZM1800.5 2142.77c-282.82 83.41-330.73 76.94-295.4 122.93 18.14 11.26 26 .73 29.91 1.62l264.13-74.84c53.12-9.09 29.64-57.96 1.36-49.71ZM2099.37 2058.08s-206.17 58.41-218.59 61.94c-14.49 2.55-27.84 27.23-7.23 42.76 17.47 9.92 29-1.65 49-5.28l184.16-52.18c37.05-7.19 24.82-54.53-7.34-47.24ZM2068.44 1948.93 1709 2050.77c-94 16.45-45 66.72-22.76 55.78l395.09-112c29.56-9.43 18.25-52.55-12.89-45.62ZM1593 2083.64c-111.36 31.69-154.25 34.42-114.4 76.08 17.92 6.88 135.33-33.63 135.61-34.73 18.93-14.63 6.27-47.2-21.21-41.35Z"/><path fill="#fff" d="m1871.51 1556.9-232.68 940.41-.14.55-97.69 27.69c-37.29 9.4-65.21 20.4-75 20.69-19.49 5.64-30.31 8.88-30.49 9.22-3.87.08-44.53-141.45-90.75-306l16.55-61.58 141.65-527.11c82-22.62 176.81-49.1 275.86-78.28 30.78-8.38 61.78-16.95 92.69-25.59Z" opacity=".29"/><path fill="#fff" d="m2530.54 1432.44-14.7 59.43-201.58 814.66-.25 1c-122 34.51-257.61 72.61-385.09 108.38l.11-.4 254.58-947.37.15-.57c134.21-38.94 243.8-71 297.14-84.22l.46-.11c23.75-5.89 36.2-8 34.5-5.3 4.23 16.24 9.14 34.53 14.68 54.5Z" opacity=".29"/><path fill="#029d99" d="M3871.73 2290.28c-27.87 26.27-223.7-19.32-385.11 59.39l-176.11-67 136.94 83.51c-86.25 37.61-170.71 80.77-251.66 92.67-144.11 20.56-259.88-65.4-254-178.68-147-164.18 54.16-418.5 581-262.36l-143.3 64.94 221-36.54c210.69 87.95 301.93 223.29 271.24 244.07Z"/><path fill="#0f585e" d="M3749.37 2223.86c-267.72-60.38-631.55-87-807.16 56.7l-.91-1c188.08-188.19 630.18-101 808.4-57Z"/><path fill="#029d99" d="m4031.76 2082.66-83.6-82.37 55.61 73.81c-121.16-39.8-250.25-74.84-314-191.79 4-11.53 47-105.44 230.14-9.46l-50.42 20.25 65.33-12.3c152.34 83.08 248.89 200.27 253.08 232.12-3.07 10.71-76.27-6.3-156.14-30.26Z"/><path fill="#0f585e" d="M4124.67 2076c-134.69-104.87-301.77-199.41-435-193.85l.06.46c161 8.32 307.21 101.43 434.47 193.69ZM3228.89 2530.19s272.15 56 218.65 118.36-218.65-118.36-218.65-118.36Z"/><path fill="#0f585e" d="M4178.86 2091.26c-183.22-129.8-481.74-206.82-489-208.67-.07-.1 0 0-.16-.28 4-11.53 47-105.44 230.14-9.46l-50.42 20.25 65.33-12.3c135.11 73.65 217.82 167.69 244.11 210.46ZM3851 2300c-103.28-4.64-254.2-3.14-364.38 49.64l-176.11-67 136.94 83.51c-86.25 37.61-170.71 80.77-251.66 92.67-144.11 20.56-259.88-65.4-254-178.68-.18-.18-.36-.35-.54-.54S3229.6 2038.07 3851 2300Z"/><path fill="#029d99" d="M1148.05 1763c4.33-17.41 38.56-189.52-213.35-201.2l32.71 70.19-53.14-70.99c-234.65-5.39-414.64 103.32-421.88 127.26-5.39 18 78.05 53 173 83.76l143.76-50.23-110.3 60.74c154.63 43.47 296.86 95.6 449.2-19.53Z"/><path fill="#0f585e" d="M581.51 1686.65c190.31-38 441-45 566.74 76l-.41.61c-159.27-126.54-429.27-99.11-566.13-75.84Z"/><path fill="#029d99" d="M1224.19 1599.81c8.54-.11 94.37-6.23 49-133l-25.47 25.68 21.7-35.92c-34.58-94.2-115.25-184.77-143.42-192.57-8.77 1.67-7.77 46.82-2.89 97.16l51.8 64.7-49.91-46.62c11.45 84.36 16.46 160.41 99.19 220.57Z"/><path fill="#0f585e" d="M1145.24 1308.06c53.18 85.42 109.67 211.62 79.12 291.81l-.36-.12c26.27-102.89-46-234-79.08-291.49Z"/><path fill="#029d99" d="m1105.1 1915.16.05-.19c-5.15-8.21-55.38-73.67-180.7 33.65l42.82 6.76-53 2.08c-115.76 102.42-161.2 215.19-155.5 225.64 4.31 7.86 58.21-18.53 116-51.34l50.36-79-30.13 67.35c87.31-52.64 181.14-102.65 210.1-204.95Z"/><path fill="#0f585e" d="M801.32 2143.09c86.09-105.57 199.21-208.88 303.81-228.29v.36c-123.74 35.16-220.89 133.63-303.44 228.08ZM843.47 1925.39s-154.62-35.45-171.63 35.92c70.08 19.85 154.34-27.55 171.63-35.92ZM1027.09 1469.33c-7 0-22.16-18.3-35.56-35.69-202.72-257.46-346.96 33.36 35.56 35.69ZM1224.19 1599.81c8.54-.11 94.37-6.23 49-133l-25.47 25.68 21.7-35.92c-29.11-76.46-75.67-134.89-108-166.41 37.26 73.55 96.42 213.95 62.63 309.54ZM1148.15 1762.52c4.2-16.81 38.27-189.31-213.45-200.77l32.71 70.19-53.14-70.94c-234.65-5.39-414.64 103.32-421.88 127.26 0 .01 539.14-128.61 655.76 74.26Z"/><path fill="#0f585e" d="m1105.1 1915.16.05-.19c-5.15-8.21-55.38-73.67-180.7 33.65l42.82 6.76-53 2.08c-115.76 102.42-161.2 215.19-155.5 225.64-.01 0 208.87-266.56 346.33-267.94ZM1379.11 1645.05c-1.83 30.54-43.48 27.65-44.14 0 1.84-30.54 43.48-27.65 44.14 0Z"/><path fill="#fdb23d" d="M1765 1372.28c-6.35 126.36-182.69 121.53-186.8 0 6.35-126.35 182.69-121.53 186.8 0Z"/><path fill="#f28b0f" d="M1677.66 1278.88c-126.38 6-122 182.37-.5 186.8 126.37-6.01 122.01-182.37.5-186.8Zm-.48 178.39c-115.22-6.23-109.87-166.64.45-170 115.22 6.25 109.88 166.66-.45 170Z"/><path fill="#fdb23d" d="M1671.59 1278.88c-126.35 6.35-121.53 182.7 0 186.8 126.41-6.35 121.53-182.68 0-186.8Zm0 178.39c-115.23-5.92-110.32-166.34 0-170 115.23 5.94 110.32 166.37 0 170Z"/><path fill="#f28b0f" d="M1686.42 1397.46c.69-17-31.33-18.44-39-28.73-17.46-18.4-4.25-47.89 21-48.85v-15.22h11.32v15.43c16 2.1 28 13.84 26.94 31.7h-20.27c.55-26.51-37.32-17.21-22.86 5.56 72.14 28 40.52 66.92 14.77 68.55v14H1667v-14c-17.28-1.58-32.48-12.33-30.71-32.58h20.2c-2.42 19.26 29.06 24.22 29.93 4.14Z"/><path fill="#ffda88" d="M1681.66 1397.46c.69-17-31.33-18.44-39-28.73-17.46-18.4-4.25-47.89 21-48.85v-15.22H1675v15.43c16 2.1 28 13.84 26.94 31.7h-20.27c.55-26.51-37.32-17.2-22.86 5.56 72.14 28 40.52 66.92 14.77 68.55v14h-11.32v-14c-17.28-1.58-32.47-12.33-30.71-32.58h20.2c-2.44 19.26 29.04 24.22 29.91 4.14Z"/><path fill="#fff2d6" d="M1578.2 1372.28a93.1 93.1 0 0 0 27.47 66.14l5.94-5.94c-77.9-86.32 40.27-195.53 120.18-120.18l6-5.94c-61.17-58.87-158.87-16.44-159.59 65.92Z"/><g style="mix-blend-mode:screen" opacity=".6"><path fill="#fff2d6" d="M1675 1320.09v-15.43h-11.32v15.22c-38.6 4-37.19 49.65-3.31 59.26l13.58-13.74c-44.49-13.86 4.07-51.44 7.72-13.61h5.88l12.67-12.66c-3.22-9.79-12.77-17.51-25.22-19.04Z"/><path fill="#fdb23d" d="M1631.54 1393.32c-.63 3.44.35 8.5 1.62 12.85l12.85-12.85Z"/></g><path fill="#fff2d6" d="M1647.21 1453.84a84.21 84.21 0 0 1-15-6L1626 1454a92.27 92.27 0 0 0 14.49 6.55ZM1753.34 1326.67l-6.22 6.22a84.21 84.21 0 0 1 6 15l6.74-6.74a92.27 92.27 0 0 0-6.52-14.48Z" opacity=".5"/><path fill="#fff2d6" d="m1662.25 1433.94 40-40a26.32 26.32 0 0 0-5.78-15.11l-15.15 15.17c1.86 8.92-4.07 18-16 16l-13.49 13.49a43.73 43.73 0 0 0 10.43 2.42Z"/><path fill="#fdb23d" d="M1585.73 1101.91c48.46 87.85-72.2 157.13-125.08 77.85-48.46-87.85 72.2-157.12 125.08-77.85Z"/><path fill="#f28b0f" d="M1488.32 1075.78c-82.42 57.21-5 172.84 77.52 125.28 82.42-57.22 5.05-172.85-77.52-125.28Zm74 119.63c-80.25 43.91-142.67-66.25-70.54-114 80.28-43.9 142.7 66.26 70.57 114Z"/><path fill="#fdb23d" d="M1484.26 1078.31c-82.27 57.43-4.59 172.85 77.85 125.07 82.27-57.38 4.59-172.86-77.85-125.07Zm74.34 119.44c-80.13 44.11-142.84-65.88-70.84-113.81 80.14-44.12 142.85 65.87 70.84 113.81Z"/><path fill="#f28b0f" d="M1543.6 1151.52c-6.6-11.63-28.26.63-38.1-3-18-4.12-23.58-30-6.27-41.48l-6.34-10.19 7.58-4.72 6.43 10.34c10.89-5 24.72-2.6 31.25 10l-13.58 8.45c-11.09-18.76-33.3 6.21-11.43 13.5 54.41-11.94 55.57 25.37 36.9 39.48l5.84 9.38-7.58 4.72-5.84-9.38c-11.73 5.92-26.93 5.44-34.13-9l13.52-8.42c5.73 13.27 29.5 5.03 21.75-9.68Z"/><path fill="#ffda88" d="M1540.42 1153.5c-6.61-11.62-28.27.63-38.11-3-18-4.12-23.58-30-6.27-41.47l-6.34-10.19 7.58-4.72 6.43 10.33c10.89-5 24.73-2.59 31.25 10l-13.57 8.45c-11.09-18.76-33.31 6.21-11.44 13.51 54.42-12 55.57 25.37 36.91 39.47l5.83 9.38-7.58 4.72-5.84-9.38c-11.73 5.93-26.93 5.45-34.13-9l13.52-8.42c5.73 13.27 29.5 5.03 21.76-9.68Z"/><path fill="#fff2d6" d="M1460.65 1179.76a73.44 73.44 0 0 0 46 32.84l1.5-6.46c-88.55-25.6-53.92-147.79 30.37-130.54l1.51-6.46c-64.73-14.2-113.52 55.26-79.38 110.62Z"/><g style="mix-blend-mode:screen" opacity=".6"><path fill="#fff2d6" d="m1503.71 1104.48-6.43-10.33-7.58 4.72 6.34 10.19c-23.8 18.2-4.66 48.78 22.48 41l3.37-14.86c-34.4 9.76-20-36-.5-12.32l3.94-2.45 3.2-13.76c-5.78-4.97-15.64-6.32-24.82-2.19Z"/><path fill="#fdb23d" d="M1505.14 1171.62c1 2.46 3.56 5.28 6.44 7.93l3.25-14Z"/></g><path fill="#fff2d6" d="M1540.85 1205.61a67.11 67.11 0 0 1-12.56 2.22l-1.57 6.76a74.06 74.06 0 0 0 12.43-1.66ZM1558.91 1076.23l-1.57 6.76a66.88 66.88 0 0 1 10.29 7.54l1.71-7.32a74.09 74.09 0 0 0-10.43-6.98Z" opacity=".5"/><path fill="#fff2d6" d="m1542.63 1186 10.08-43.47a20.73 20.73 0 0 0-10.16-7.7l-3.81 16.47c4.44 4.36 5.09 14-4 17.39l-3.4 14.65a34.3 34.3 0 0 0 8-2.73Z"/><path fill="#fdb23d" d="M1817.21 971.37c-6.84 136.35-197.21 131.34-201.71 0 6.84-136.37 197.21-131.37 201.71 0Z"/><path fill="#f28b0f" d="M1722.89 870.52c-136.36 6.47-131.86 196.86-.53 201.7 136.37-6.47 131.86-196.85.53-201.7Zm-.51 192.62c-124.16-6.58-118.89-179.83.49-183.54 124.13 6.59 118.9 179.83-.49 183.54Z"/><path fill="#fdb23d" d="M1716.34 870.52c-136.34 6.84-131.34 197.21 0 201.7 136.35-6.83 131.34-197.22 0-201.7Zm0 192.62c-124.17-6.25-119.37-179.51 0-183.54 124.18 6.26 119.38 179.52 0 183.54Z"/><path fill="#f28b0f" d="M1732.35 998.55c.67-18.52-33.86-19.8-42.13-31-19-20.37-4.3-51.7 22.71-52.74v-16.46h12.23V915c17.4 2.28 30.28 15 29.09 34.23h-21.9c-.41-31.29-42.38-15.29-23.57 7 75.83 28 43.36 71.38 14.84 73v15.13h-12.22v-15.13c-18.64-1.67-35.13-13.38-33.16-35.17h21.81c-2.39 21.65 31.78 25.52 32.3 4.49Z"/><path fill="#ffda88" d="M1727.21 998.55c.67-18.52-33.86-19.8-42.14-31-19-20.37-4.29-51.7 22.72-52.74v-16.46H1720V915c17.4 2.28 30.29 15 29.09 34.23h-21.9c-.41-31.29-42.39-15.29-23.57 7 75.83 28 43.36 71.38 14.84 73v15.13h-12.22v-15.13c-18.64-1.67-35.12-13.38-33.16-35.17h21.81c-2.37 21.65 31.8 25.52 32.32 4.49Z"/><path fill="#fff2d6" d="M1615.5 971.37a100.52 100.52 0 0 0 29.67 71.42l6.42-6.42c-84-93 43.28-211.22 129.76-129.76l6.42-6.42c-65.93-63.51-171.42-17.91-172.27 71.18Z"/><g style="mix-blend-mode:screen" opacity=".6"><path fill="#fff2d6" d="M1720 915v-16.65h-12.23v16.44c-41.9 4.5-40 53.63-3.58 64l14.67-14.84c-48.52-15.55 5-55.17 8.33-14.69h6.36l13.67-13.68c-3.45-10.58-13.86-18.99-27.22-20.58Z"/><path fill="#fdb23d" d="M1673.1 994.09c-.68 3.71.38 9.18 1.75 13.88l13.88-13.88Z"/></g><path fill="#fff2d6" d="M1690 1059.44a91.52 91.52 0 0 1-16.21-6.52l-6.71 6.72a100.4 100.4 0 0 0 15.65 7.08ZM1804.62 922.12l-6.72 6.72a91.19 91.19 0 0 1 6.51 16.21l7.28-7.28a100.77 100.77 0 0 0-7.07-15.65Z" opacity=".5"/><path fill="#fff2d6" d="m1706.26 1038 43.17-43.22a28.54 28.54 0 0 0-6.24-16.32l-16.34 16.39c2 10-4.45 19.29-17.29 17.29l-14.56 14.51a46.73 46.73 0 0 0 11.26 2.61Z"/><path fill="#97141a" d="M2018.78 2749.44v-.33l-.1.32.1-.32v-.67l.21.04-.16.47-.05.49z"/><path fill="#4d1b1c" d="M2925.38 2641.61a2576.58 2576.58 0 0 1-271.75 67.22c-127.9 24.49-257.23 39.7-385.86 46.74-83.7 4.59-167.09 5.71-249.62 3.68q.25-12.43.49-25.41c2.06-111.16 4-249 23.18-356.27l791.7-91.15c6.31 7 21.72 15.56 25.1 23.76a1050.26 1050.26 0 0 1 55.63 214.63 1106.4 1106.4 0 0 1 11.13 116.8Z"/><path d="M2436.33 2428.46s9.52 37.77 0 35.26-55-20.15-55-20.15l-100.92-8s59.73-3.69-12-.26c-56.44 2.7-181.21-16.51-231.85-24.84 1.61-11.59 3.38-22.61 5.29-32.92l791.71-91.16c33.61 22.31 33.73 52.48 43.34 76.7-110.37 58.91-440.57 65.37-440.57 65.37Z"/><path fill="#f2674a" d="M3386.47 1564.29c-13.73 160.69-26.32 285.59-58.12 326.66-115.53 105.8-297.67-49.68-381.65-125-21.66 166.49 51 346.9-116.86 443.75-59.85 34.49-97.77 22.37-141.69 33.16-19.4 4.89-36.6 13.71-54.08 24-95.25 64.13-187.26 81.48-288.35 95-61.93 13.15-59.25-13.47-98.95-17.67-203.53-11.86-303.22-42.41-305.33-261.45-1-44.74 7.94-90.57-4.31-134.53-4 47.06-33 86.62-62.33 122.06-64.67 91.8-161.84 61.35-216-15.9-42-54.27-58.25-230.75-46.12-258.38 166.85-74.14 145.81-81.06 163.27-155.71 20-101.74 46.44-280.62 80-346.7 11-38.27 112.65-72.56 209.3-97.33 69.69-18 129.49-29.32 128.32-29.09 40.83-1 344.92-12.74 378.6-29.29 73.45-.77 303.7 59.44 353.79 71.4 119 63.07 141.22 203.73 199.51 294.55-5.21-8.27 3.28-53 3.06-67-16.7-175.85-11.33-113.29 2.64-206.38 76.69 42.44 169.88 79.95 242.14 21.78 5.14 103.6 17.12 207.65 13.16 312.07Z"/><path fill="#97141a" d="m1947.35 1960.1-5 15.71a163.49 163.49 0 0 0-5.24-27.6c-9 79-109.45 213.89-192.55 171.36 46.9 4.44 112.77-36 127.83-80.21 18.56-54.52-47.07-180.75-48-182.48 39 48.11 67 21.54 55.18-24.05s9.26-520.6 9.26-520.6Z" opacity=".35"/><path fill="#fcdccd" d="M1867.47 1707.53c-16.85 27.83-42.57 54.16-62.52 81.06q1 2.31 1.94 4.58c28.24 70.35-37.53 103.52-90 91.6-16.14-4.08-28.83-17.87-45.47-20.57a278.58 278.58 0 0 1-48-75.69 255.57 255.57 0 0 1-16.91-56.68c-22-55.9-7.8-70.71 2.33-83.62 6.86-8.75 11.87-16.63 2.49-35.85-29.44-73.78-76.38-83.68-30-113l88.61 61.39 48 33.23 5.54 3.84.23.16 4.85 3.36 36.28 25.13 5.73 4 25.85 17.92 5.59 3.87 18.52 12.83 13.82 9.58 6 4.14 13.26 9.19 3.4 2.36c7.86-.89 13.64 8.64 10.46 17.17Z"/><path fill="#e5a993" d="m1669.89 1560.7-58.33 88.3-2.72-.82c6.86-8.75 11.87-16.63 2.49-35.85-29.44-73.78-76.38-83.68-30-113Z"/><path fill="#029d99" d="M1856.13 1688.8c-30.35 29.83-63.07 53.27-90.33 85.66l-.08-.11-.19-.27-111.2-153.26q-2.34-5.28-5.23-11.15c-7.45-15.19-17.46-33.2-28.92-52.67-28.64-48.64-66.3-106.51-95.55-152.88q-4.94-7.81-9.52-15.17l121-3.09c11.42 15.12 41.36 55.43 75.8 102.23 56.81 77.15 125.84 171.97 144.22 200.71Z"/><path fill="#029d99" d="m1765.8 1774.46-.08-.11-.19-.27-116.43-164.41-42.1-59.45-101.86-143.85 19.49-2.25 93.35-10.8 60.34 155.57 87.48 225.57z"/><path fill="#0f585e" d="M1856.13 1688.8c-30.35 29.83-63.07 53.27-90.33 85.66l-.08-.11-.19-.27-111.2-153.26q-2.34-5.28-5.23-11.15l-42.1-59.45a110.8 110.8 0 0 0 13.18 6.78 73.94 73.94 0 0 0 11.11 3.82c19.65 5 35.13-1.32 47-11.93 23.72-21.15 33.3-59.56 33.61-60.8 56.82 77.15 125.85 171.97 144.23 200.71Z" opacity=".35"/><path fill="#0f585e" d="m1853.52 1687.91-33.07-22.91-197.17-263.43-118.14 4.8 9.97-17.42 121.02-3.09 217.19 300.16.2 1.89z"/><path fill="#f2674a" d="m2563.66 1139.66-32.66 22.17-44.39 30.17c-84.89-62.53-120-143.39 33.52-119.27l.55-.09c.39-.07.78-.13 1.16-.16 4 .51 8.26 1.24 12.65 2.17 23.64 11.89 29.17 65.01 29.17 65.01Z"/><path d="M2573.49 692.56c43.58 129.32-74.68 200.59-101.06 118.21-11.36-40.25.72-87.41 33.64-112.62ZM2159.5 612.85c-88.3-44.57-59.9 191.68-4 194.41 67.3 4.11 79.98-187.06 4-194.41Z"/><path fill="#fcdccd" d="M2563.67 1139.66c-6.41 14-127.4 123.24-179.34 167a290 290 0 0 1-47.45 3.66c-217.34-167.75-100.68-132.28-97.65-202 73.54 47 191.34 56.88 252.41-98.55 12.68 164.89 84.04 103.11 72.03 129.89Z"/><path fill="#e5a993" d="M2491.64 1009.69c-59.76 215.3-204.28 160.86-262.57 128.35a95.54 95.54 0 0 0 10.16-29.8c73.54 47.03 191.34 56.88 252.41-98.55Z"/><path fill="#fcdccd" d="M2563.65 844.22c-.4.92-.83 1.83-1.3 2.69-9.13 17.15-29.45 22.86-42.6 33.59-8.23 6.73-13.65 15.42-11.78 30.1-.52 162.76-110.55 251.13-197.59 228.89-99.49-20.93-147-93.74-168.08-183.18-6.12-25.93-10-53.25-12.3-81.12-5.76-70-1.44-143.42 3.1-206.62 1.3-18.18 2.63-35.52 3.73-51.7-2.94-3.63 36.88 10.58 98.79 1.92 49.55-2.6 112.62-41.5 136.21-33.51 78.53 11.92 121.42 150.92 119.82 211.84 6.14-15.92 13.34-25.88 20.83-31.21 30.94-22.06 66.62 35.14 51.17 78.31Z"/><path fill="#e5a993" d="M2512.48 765.91c-4.13 35-16.27 62.49-35.33 59.4-33-5.33-51.17-72.43-48.36-118s-6.43-38-14.81-52.71-13.32-13.38-74 10.72-133 2-157.88-8-39.76 11.24-49 11.3c1.3-18.18 2.63-35.52 3.73-51.7-2.94-3.63 36.88 10.58 98.79 1.92 49.55-2.6 112.62-41.5 136.21-33.51 78.53 11.92 121.42 150.92 119.82 211.84 6.14-15.97 13.35-25.93 20.83-31.26Z" opacity=".5"/><path fill="#e5a993" d="M2260.16 857.59c-3.93 4.55-8.16 9.25-9.46 15.11-1.63 7.31 1.64 14.8 5.58 21.17 3.4 5.49 7.47 10.73 12.86 14.29s12.3 5.24 18.46 3.29c14.8-4.69 17.2-21.73 16.62-35.12-.53-12.34-2.33-36.68-13.39-44.32-5.44-3.76-10.65 0-14.08 4.33-5.6 7.05-10.69 14.42-16.59 21.25Z" opacity=".5"/><path d="M2394.56 966.9c-3.74 71.59-73.12 110.87-125.12 64.39-20-15.56-32.27-36.32-39.09-51.67 12.57 28.28 175.54-23.96 164.21-12.72ZM2271.11 893.64c-5.51-4.58-10.19-10.95-13.9-17.76 16.44-25.89 49.33-61.75 25.85-84.5-2.39-.48-4.87 1.72-3.88 5 13.75 28.8-21.37 53.24-33 77.88 14.03 50.14 71.33 47.19 24.93 19.38ZM2339.42 801.7c7.27-12.59 23.18-12.76 36.87-9.79 6-25.44-61.67 3.28-36.87 9.79ZM2213.47 803.53c-15-30-70.77 3-17.76-3.53 6.05-1.13 13.25 3.09 17.76 3.53ZM2189.6 816.09c-2.9 8.87-3.54 28.09 4.75 34.67 4.79 3.8 9.22-.68 11.55-4.84 4.93-8.79 3-16.84-.34-25.95-1.17-3.18-3.07-8-6.64-9.14-3.31-1.11-8.26 2-9.32 5.26ZM2346.52 807.25c-2.35 3.3-1.72 10.9-1.55 14.7a42.35 42.35 0 0 0 2.94 14.89c1.34 3.06 3.52 6.63 7.3 6.55 6.1-.13 7.66-8.16 9.57-12.55 4.22-9.78-6.23-40.51-18.26-23.59ZM2153.55 765.42c38.38-11.63 36-19.63 70.35-5.93 15.21-.1.77-20.41-7.44-21.71-29.64-13.45-77.3 18.82-62.91 27.64ZM2413.44 737.61c-15.56-8.31-32.78-14.49-50.54-15.18-11.53-.45-23.49 1.48-33.66 7.14-5.67 3.15-12.44 8.23-14 14.93-1 4.09 1.66 7.1 5.54 8 6 1.36 11.51-3.82 16.68-6.13 12.36-5.52 26.2-6.76 39.59-6.09a103.81 103.81 0 0 1 18.77 3c5.44 1.3 11.89 4.28 17.51 2.87a2.69 2.69 0 0 0 2.36-2.44c.09-1.39-1.05-5.45-2.25-6.1Z"/><path fill="#e5a993" d="M2389.88 993c-18.66 59.63-81.07 76.59-122.5 36.39 13.17-35.85 100.35-41.45 122.5-36.39Z"/><circle cx="2425.51" cy="891.42" r="43.65" fill="#e5a993" opacity=".5"/><path fill="#e5a993" d="M2194.56 913.51a43.68 43.68 0 0 1-52.26 42.8c-6.12-25.93-10-53.25-12.3-81.12a43.66 43.66 0 0 1 64.56 38.32Z" opacity=".5"/><circle cx="2345.3" cy="816.3" r="8.23" fill="#fff"/><circle cx="2186.33" cy="822.53" r="8.23" fill="#fff"/><path d="M2485.3 809.86c14-1.15 39-38.69 48.14-49.52 28.93-30.48 55.07-61.88 47.55-103.37-30.81-110.23-175.93-205.29-278.92-177.07-29 9.89-49.18 35.69-71.84 56.52-37.75 38.94-79.15 28.64-101.24 44.34-28.07 18.83-25.09 58.24 8.35 78 41.94-37.22 92.49 8.12 128.63 1.47 32.83-3.18 58.58-22.36 91.57-29.19 136.52-15.04 27.53 111.2 127.76 178.82Z"/><path fill="#4d1b1c" d="M1806 1862.43c-6.22 15.52-3.55 38.14-15.7 49.85-30.11 6.52-61.65.35-88.66-13.79-40.57-21-59.14-67.36-78.39-106.6l2.34.91c14 23 24.42 52.44 45.81 71.4 51.78 25.75 90.82 36.26 130.45-3.36Z"/><path fill="#97141a" d="M1872.24 1951.67c-4.5-23.3-39.79-110.19-51-92.37 1.2 15.12 17 28.58 22.62 44.84 10.85 17.89 20.41 73.59 28.39 47.53Z"/><path fill="#e5a993" d="M1591.92 1676.72c9.86 27.32 35 48.87 57.33 66 24.13 18.53 51.7 36.42 81.39 44.4 7.4 2 21 4.66 26.82-2.29a.9.9 0 0 0-1.08-1.4c-7.48 3.72-16.08 1.37-23.71-.69-12.47-3.35-24.32-9-35.66-15-27.87-15-54.41-33.31-76.91-55.63-10.47-10.39-20.9-22-26.55-35.82-.4-1-2-.59-1.63.45Z"/><path fill="#fcdccd" d="M1742 1550.55c-5.64 15.73-20.74 34.9-37.78 53.21-21.06 22.64-45.08 44-57.8 55.81-3.57 3.32-6.24 5.9-7.72 7.55l-26.85-18.39-1.77-1.21c77.21-90.12 97.85-127.63 113.31-129.45 20.43 4.62 24.17 16.85 18.61 32.48Z"/><path fill="#e5a993" d="M1746.24 1547.85c-2.32 16-13.69 35.86-39.45 55.2-1 .31-1.87.55-2.6.71-15.49 3.55 24.72-23.78 34.48-51.08 2.84-7.94 3.11-15.88-1.31-23-20.69-22.18-17.09-5.52-125.54 119.1l-.26.3c-17.21 8.53 71.76-97.11 102.82-131.73 18.89-8.23 35.31 6.82 31.86 30.5Z"/><path fill="#fcdccd" d="M1738.56 1769.54c30.55-35.24 84.76-79.59 118.59-111.1 35.23-96.82-134.42 49.51-158.31 67.76-1.14-5.65-1.59-10.45-4.36-15.74-1.24-.76-1.72-1.67-3-2.43 27.09-42.61 64-74.26 108.45-100.69 23.83-10.48 22.59-51.18-3.82-51.82-42.37 27.86-86.47 51.4-127 81.63-12.53 12.81-14 34.06-26.62 45.64Z"/><path fill="#e5a993" d="M1643.47 1683.67c34.77-64.57 45.77-55.81 87.06-83.75 64.52-38 72.16-58.21 84-20.61.74 27.5-51 42.27-63.47 58-88.89 81.07-53.48 70.61-55.43 87.62 1.47 13.14 20-9.84 24.64-12.6 55.37-41.69 114.1-86.67 128.75-84.69 18.48 7.67 9.55 28.36-3 37.18-21.66 17.57-111.38 94.47-88.68 92.25 80.7-83.71 104.94-89.36 108.84-109.64-1.81-50.68-43.45-15.91-61.37-5-18.29 12.71-36.43 25.63-54.25 39-8.68 6.51-17.21 13.2-25.8 19.84-19.71 15.22-14.64-16.27-7.54-25.72 8.66-11.51 21.52-19.55 32.2-28.56 18.32-15.45 38.53-27.6 57.91-41.51 22-15.78 14-46.76-8.15-53.58-15.63 4.79-27.54 17.17-42.93 25.37-101.19 63.54-89.65 52-112.78 106.4ZM1853.32 1686c-32.57 33.11-101.14 86.09-90.92 94.54 70.45-66 111.79-99.18 90.92-94.54ZM1802.36 1786c-2.75 4.84-25.92 26.76-12.61 26 4.36-2.76 28.89-30.84 12.61-26Z"/><path fill="#97141a" d="M2886.77 2286.41c-117.93 175.55-851 129.52-868 107.63-8.88-11.45-2.35-46.19 5.9-76.78a653.64 653.64 0 0 1 4.78-16.71c70.36 37.37 148.65 36.72 222.88 44.61 15 1.9 31.24 12.13 44 18.15 21.16 6.83 54.36-3.68 78.75-5.55 195.46-29.47 216.26-72.91 290.08-107.13 23.67-11.78 49.76-10.87 74.61-11.18 52.46-5.73 103.19-32.21 139.93-64 .66 10.62 6.3 98.38 7.07 110.96Z"/><path fill="#f2674a" d="M2424.9 2463.72c-161-33.28-125.58 49.71-131.79-102.66 37.82 9.47 89.23-7.39 129-11.2.89 37.31 1.89 75.62 2.79 113.86Z"/><path d="M2308.23 2481.94c-2.58 20.26-5.15 40.51-7.57 60.77-8.4 70.28-15 140.94-14.19 211.78v.17q-6 .38-12 .72v-.18q-.39-30.42.91-60.82c3-71.15 11.86-141.85 20.84-212.44.97-7.57 12.98-7.64 12.01 0Z"/><path fill="#97141a" d="M3116.85 1644.55c21.14-46.87-54.52 23.59-58.6 32.15-13.61 12.46-70.14 105.69-35.13 92.37 31.68-69.34 55.82-97.89 96.68-132.43l-8.31-2.19c-.77 3.15-3 14.94 5.36 10.1Z"/><path fill="#97141a" d="M3104.29 1691.1c71.08-212.69 11.25-299.89 24.59-407.71.52-7.75 5.3-20.36-5.72-19.88-27.16 47.25 2.59 148.7 2.55 178.47 8.44 80.52-3.48 157.7-26.6 234.25-4.39 8.4-5.92 25.37 5.18 14.87Z"/><path fill="#fff" d="M3359.32 1262.42c-59.17 36.38-134.84 16-193.25-14.1 6.69-23.78-8.14-47.08-24-63.51 12.74-17.37 34.25-6.83 53.29-12 35.89-4.77 99.85-28.74 103.52-38.17a161.94 161.94 0 0 0 21-16.6c15.29 46.42 26.03 96.26 39.44 144.38Z"/><path fill="#e5a993" d="M3078.28 1052.22c-57.93-4.2 2.77-47.6 16.13-59.32 1.22 1.92 10.15 44 10.19 44.13Z"/><path fill="#fff" d="M2956.92 1584.6c-1.36 60.79-6.57 121.6-9.64 182.34-.21-.32-.39-.63-.58-1-11.28 64.5-2.26 116.22-1.5 170.66 0 44.59 1.38 96.07-12.66 140.8-8.85 1-21.85-1.43-30.76-6.23-121.77-64-175.86 122.55-280.18 125.18-161.55 13.62-262.77-269.86-173.13-355.77 87.06-96.92 210.58-74.09 276.83-122.48 36.27-26.78 37.4-76.65 53.45-114.77 22.54-48.45 64.79-104.18 120.58-87.75 57.78 21.64 59.5 29.68 57.59 69.02Z"/><path fill="#fcdccd" d="M3259.49 1155.2c-26 10-53 17.62-81.5 19.47-9.4-25.51-49.62-60.06-30.64-86.89a29.74 29.74 0 0 1 2-2.6c-39.53 11.4-61.84-3-60.81-37-13.55-5.41-10.63-31.81.25-38.63-14.55-20.44-18.12-42.41 8.36-47.3-40.87-57.51 141.6-16 158.73-17.64 20.37 57.87 26 120.59 40.25 180.55.46 1.93.93 3.87 1.41 5.8 6.87 8.83-21.75 16.94-38.05 24.24Z"/><path fill="#e5a993" d="M3116 1092a97.48 97.48 0 0 1 16.92-2.71c5.7-.29 11.4-.35 17.1-.57 4.91-.2 9.84-.38 14.72-1 3.22-.4 8.6-.75 10.56-3.79 2.25-3.51 2.51-10.37 2.21-14.44-.27-3.55-1.35-7.52-3.77-10.23-4.63-5.21-12.1-6.15-18.71-6.09-6.84.06-17.56.27-23 5a1.9 1.9 0 0 0 0 2.65c5.77 6 18.76 2.12 26 2.16 3.18 0 7 .2 9.31 2.73 3.39 3.75 1.49 10.73.47 15l1.89-2.47c-3 1.51-6.93 1.72-10.26 2-5.14.51-10.3.76-15.43 1.37-9.4 1.11-21 2.19-29.11 7.56a1.51 1.51 0 0 0 1.1 2.83ZM3091.19 1051.29c9.55-1.57 19.07-4.48 28.49-6.73 9.16-2.19 18.19-5 27.21-7.71s18-5.47 27-8.4q6.49-2.12 13-4.28c4.35-1.46 8.94-2.39 12.49-5.36 2.55-2.13.33-6-2.55-6.16-4.5-.18-8.94 2.1-13.16 3.51q-6.94 2.31-13.89 4.58-13 4.23-26 8.5c-8.65 2.83-17.42 5.38-26 8.42-9.17 3.25-18.74 5.82-27.74 9.47a2.16 2.16 0 0 0 1.15 4.16ZM3087.41 1008.28c9.46-1.15 19-4.15 28.17-6.67s18.51-5.15 27.72-7.88 18.56-5.43 27.88-8c5-1.37 10-2.68 15-4s9.66-3.39 14.63-5.07c3.79-1.27 2.2-6.46-1.62-5.87-5.23.8-10.2 1.16-15.32 2.53s-10 2.75-14.9 4.19c-9.29 2.7-18.53 5.53-27.77 8.41s-18.3 5.93-27.4 9-18.64 5.84-27.24 10c-1.53.74-.85 3.53.9 3.32ZM3102.37 962c24.09-3.9 48.47-6.68 72.73-9.39 23.92-2.66 47.92-3.74 71.88-5.78 4.44-.38 4.59-7 0-7-24.63 0-49.4 2.78-73.82 5.82-24.22 3-47.89 7.79-71.66 13.22-2.1.47-1.17 3.49.87 3.16ZM3257 971.37c-5.89 23.68-21.19 45.52-36 65.66Z"/><path fill="#97141a" d="M2120.65 1370.22c22.29-3.61 45.81-5.1 67.63 1.78 14.55 4.59 27.17 12.46 38.83 22.18s22.9 20.48 35.73 29a127.38 127.38 0 0 0 51.89 19.64 213.32 213.32 0 0 0 43.82 1.67c19.78-1.15 40-3.66 58.92-9.55 4.84-1.5 4.28-9.94-1.26-9.3-31.35 3.6-62.06 10.2-93.81 7a125.39 125.39 0 0 1-52.69-17.2c-26.12-15.9-45.82-40.7-75.91-50-24-7.41-50.4-5.38-74.77-1.1-3.87.68-2.2 6.5 1.62 5.88Z"/><path fill="#fff" d="M1902 1628.3c-3.93-47.46-11.47-141.44-11.47-141.44 119.08-84.69 262.86 57.7 274.52 178.46 11.82 112.25-78.27 193.43-185.79 163.84-12.79-.6-28.88 3.36-37.22 14 .03.03-34.56-149.08-40.04-214.86Z"/><path fill="#97141a" d="M2796.65 1613.21a.05.05 0 1 0 0-.1.05.05 0 0 0 0 .1Z"/><path fill="#fff" d="M3014.31 1289.11a136.08 136.08 0 0 1-13.13 10.68c-74.82-4.38-75.11 37.17-127.64 54.82-158.26 54.44-246.63-61.08-185.93-200.61 100.31 20.14 228.35 52.69 247.45 57.59 6.23 1.41 59.23 48.66 79.25 77.52Z"/><path d="M2428.14 527.31C2524 507.1 2650.45 645.36 2551 718.55c-5.66 3.25-14.54 8.59-8 15.58 68.26-9.13 72-115.13 28.68-156.82-25.48-34.4-117.52-79.42-147.7-53.94-.9 2.14.84 4.63 4.16 3.94ZM2123.5 623.93c-13.65 1.1-14-16.25-12.64-25.92a54.63 54.63 0 0 1 6.08-19c1.45-2.57 2.7-5.17 4.87-7.22 1.81-1.72 4-2.53 6.14-3.72s1.69-4.61-.67-5.14c-7-1.56-14.14 5.55-17.45 11-4.46 7.33-6.66 16.28-7.36 24.75-1.15 13.92 3.65 33.94 21.72 30.32 2.82-.57 2.22-5.3-.69-5.07Z"/><path fill="#fff" d="M2600.85 1122.78c-9.65 89.07-105.66 153.06-175.7 174.33-221.42 68.35-363.51-146.21-188.9-176.22-18.76 5.67-11.17 35.25-4.75 54.36 11.63 39.59 39.38 63.12 74.88 85.62 11.64 8 24.77 10.34 38.38 16.88 16 5.62 14.37 35.72 24.68 23.43 34.29-47.5 130-85.21 161.6-139.35 14.76-25.26 15.56-54.1-10.36-89.18l-.24-.33 1.4.17c4 .51 8.26 1.24 12.65 2.17 31.17 6.62 68.51 23.62 66.36 48.12Z"/><path fill="#97141a" d="M1879.64 1313.48c7.21 65.79 2.41 133.48 5.85 200.29 5.16 95.49 20.27 189.49 31.6 284.27 20.72 164 13.71 169.32 26.51 167.63 10.69-107.15-22.93-224.23-32.19-334-24.47-162.36-7.3-356.49-31.77-318.16Z"/><path fill="#97141a" d="M3334.4 1882.59c-107 122.52-304.17-40.17-387.7-116.6 1 1.77.66 6.71-.31 12.81-4.06-175.39 22.7-247.1 22.7-247.1 0 7.5 4.76 164.54 80 156.64l67.79-43.79c-80.34 238.77 132.61 268.71 217.52 238.04Z" opacity=".35"/><path fill="#4d1b1c" d="m2879.68 2175.46 1.14 17.8c-75.59 74.67-72.14 47.35-162.74 58.66-137.91 20.71-132.3 129.62-394.47 125.08-45.39-1.7-20.39-9-92.64-16.36-91.41-8.46-150.25-17.71-206.29-43.38a653.64 653.64 0 0 1 4.78-16.71c70.36 37.37 148.65 36.72 222.88 44.61 15 1.9 31.24 12.13 44 18.15 21.16 6.83 54.36-3.68 78.75-5.55 195.46-29.47 216.26-72.91 290.08-107.13 23.67-11.78 49.76-10.87 74.61-11.18 52.43-5.73 103.16-32.21 139.9-63.99Z" opacity=".5"/><path fill="#e5a993" d="M2562.35 846.91c-9.13 17.15-29.45 22.86-42.6 33.59-4.48-16.55-1.51-34-9.62-49.85-4.39-8.58-14.43-12.14-10.14-22.48 3.51-8.43 12.05-14.66 19.38-19.57 12.08-8.08 24.61-7.35 32.4 6 10.28 17.59 13.91 36.01 10.58 52.31Z" opacity=".5"/><path fill="#e5a993" d="m1723.4 1597.77.23.16c-10.36 9.81-21.44 19-32.11 25.28-37 21.94-48 60.47-48 60.47s1.07-10.93 2.92-24.11c1.93-13.73 4.69-29.94 7.94-38.75 4.69-12.75 56.46-50 84.34-68.14l3.3-2.13c1.52-1 3-1.88 4.27-2.7-2 13.46-10.35 29.72-28.38 46.08Z" opacity=".54"/><path fill="#e5a993" d="M1716.9 1884.77c-16.14-4.08-28.83-17.87-45.47-20.57a278.58 278.58 0 0 1-48-75.69c23.46 27.82 71.52 86.71 114.32 84 55-3.42 35.57-59.19 59-73.8a112.65 112.65 0 0 1 10.12-5.59c28.26 70.4-37.51 103.57-89.97 91.65Z" opacity=".54"/><path fill="#e5a993" d="M3175.32 1084h-.11Z" opacity=".5"/><path fill="#e5a993" d="M3259.49 1155.2c-26 10-53 17.62-81.5 19.47-9.4-25.51-49.62-60.06-30.64-86.89l27.86-3.78c-1.64.39-20.86 5.71.13 39.81 15.81 25.67 84.07 11.29 120.83 1.31.46 1.93.93 3.87 1.41 5.8 6.83 8.87-21.79 16.98-38.09 24.28Z" opacity=".5"/><path d="M2291.33 2632.57c-.32 1.24-17.95 67.75-23.56 123-83.7 4.59-167.09 5.71-249.62 3.68q.25-12.43.49-25.41c83.36 6.03 228.48.72 272.69-101.27ZM2925.38 2641.61a2576.58 2576.58 0 0 1-271.75 67.22c109.7-51.57 212.71-115.81 260.62-184a1106.4 1106.4 0 0 1 11.13 116.78Z" opacity=".38"/></g></svg>