<svg xmlns="http://www.w3.org/2000/svg" viewBox="0 0 1000 1000"><path fill="#b1bec6" d="m606.36,495.17H120.73c-21.1,0-38.19,17.1-38.19,38.19v294.43c0,21.1,17.09,38.19,38.19,38.19h485.63c21.1,0,38.19-17.09,38.19-38.19v-294.43c0-21.09-17.09-38.19-38.19-38.19Zm-341.3,144.69c0-17,13.79-30.76,30.76-30.76s30.8,13.76,30.8,30.76-13.77,30.78-30.8,30.78-30.76-13.79-30.76-30.78Zm169.04,134.87c-.95.28-1.9.4-2.86.4-4.7,0-8.99-3.12-10.32-7.86-.34-1.13-9.63-30.14-56.06-30.14s-58.46,29.63-58.93,30.88c-2.03,5.51-8.16,8.42-13.67,6.44-5.53-1.96-8.49-7.96-6.57-13.53.56-1.57,12.13-33.63,54.97-42.78,7.17-1.57,15.19-2.46,24.19-2.46s17.05.91,24.12,2.46c42.64,9.26,52.14,41.82,52.63,43.42,1.54,5.72-1.79,11.62-7.51,13.18Zm-2.83-104.09c-17.02,0-30.8-13.79-30.8-30.78s13.77-30.76,30.8-30.76,30.76,13.76,30.76,30.76-13.79,30.78-30.76,30.78Z" opacity=".5"/><path fill="#b1bec6" d="m606.36,867.98H120.73c-22.16,0-40.19-18.03-40.19-40.19v-294.43c0-22.16,18.03-40.19,40.19-40.19h485.63c22.16,0,40.19,18.03,40.19,40.19v294.43c0,22.16-18.03,40.19-40.19,40.19ZM120.73,497.17c-19.96,0-36.19,16.23-36.19,36.19v294.43c0,19.96,16.23,36.19,36.19,36.19h485.63c19.96,0,36.19-16.23,36.19-36.19v-294.43c0-19.96-16.23-36.19-36.19-36.19H120.73Z"/><path fill="#b1bec6" d="m295.82,672.64c-18.06,0-32.76-14.71-32.76-32.78s14.7-32.76,32.76-32.76,32.8,14.7,32.8,32.76-14.71,32.78-32.8,32.78Zm0-61.55c-15.86,0-28.76,12.9-28.76,28.76s12.9,28.78,28.76,28.78,28.8-12.91,28.8-28.78-12.92-28.76-28.8-28.76Z"/><path fill="#b1bec6" d="m431.23,777.13c-5.67,0-10.71-3.83-12.24-9.32-.34-1.14-9.1-28.68-54.14-28.68s-56.6,28.37-57.05,29.58c-2.41,6.55-9.68,9.97-16.22,7.62-6.54-2.31-10.04-9.52-7.78-16.06,1.27-3.56,13.56-34.92,56.44-44.08,7.57-1.66,15.85-2.5,24.61-2.5s16.96.84,24.55,2.5c41.26,8.96,52.3,38.83,54.09,44.73l.04.12c1.82,6.77-2.17,13.78-8.9,15.62-1.09.32-2.2.47-3.41.47Zm-66.38-42c47.98,0,57.59,30.28,57.98,31.57,1.06,3.8,4.51,6.43,8.4,6.43.82,0,1.58-.1,2.3-.32h.04c4.62-1.27,7.36-6.08,6.1-10.74-1.03-3.38-11.21-33.32-51.12-41.98-7.32-1.6-15.29-2.41-23.7-2.41s-16.47.81-23.77,2.41c-40.77,8.71-52.33,38.16-53.51,41.49-1.54,4.46.86,9.39,5.35,10.97,4.48,1.61,9.47-.74,11.13-5.24.49-1.32,12.57-32.19,60.8-32.19Z"/><path fill="#b1bec6" d="m431.27,672.64c-18.08,0-32.8-14.71-32.8-32.78s14.71-32.76,32.8-32.76,32.76,14.7,32.76,32.76-14.7,32.78-32.76,32.78Zm0-61.55c-15.88,0-28.8,12.9-28.8,28.76s12.92,28.78,28.8,28.78,28.76-12.91,28.76-28.78-12.9-28.76-28.76-28.76Z"/><path fill="#b1bec6" d="m211.1,434.56l-13.13,60.61h-77.25c-21.09,0-38.19,17.09-38.19,38.19v-60.61c0-21.09,17.1-38.19,38.19-38.19h90.37Z" opacity=".75"/><path fill="#b1bec6" d="m84.54,533.35h-4v-60.61c0-22.16,18.03-40.19,40.19-40.19h92.85l-13.99,64.61h-78.86c-19.95,0-36.19,16.23-36.19,36.19Zm36.19-96.79c-19.95,0-36.19,16.23-36.19,36.19v43.14c6.51-13.43,20.29-22.71,36.19-22.71h75.63l12.26-56.61h-87.9Z"/><g opacity=".75"><path fill="#b1bec6" d="m434.1,774.73c-.95.28-1.9.4-2.86.4-4.7,0-8.99-3.12-10.32-7.86-.34-1.13-9.63-30.14-56.06-30.14s-58.46,29.63-58.93,30.88c-2.03,5.51-8.16,8.42-13.67,6.44-5.53-1.96-8.49-7.96-6.57-13.53.56-1.57,12.13-33.63,54.97-42.78,7.17-1.57,15.19-2.46,24.19-2.46s17.05.91,24.12,2.46c42.64,9.26,52.14,41.82,52.63,43.42,1.54,5.72-1.79,11.62-7.51,13.18Z"/><path fill="#b1bec6" d="m462.03,639.86c0,17-13.79,30.78-30.76,30.78s-30.8-13.79-30.8-30.78,13.77-30.76,30.8-30.76,30.76,13.76,30.76,30.76Z"/><path fill="#b1bec6" d="m326.62,639.86c0,17-13.77,30.78-30.8,30.78s-30.76-13.79-30.76-30.78,13.79-30.76,30.76-30.76,30.8,13.76,30.8,30.76Z"/></g><path fill="#b1bec6" d="m462.03,829.79H82.54c-1.1,0-2-.9-2-2s.9-2,2-2h379.49c1.1,0,2,.9,2,2s-.9,2-2,2Z"/><path fill="#b1bec6" d="m577.07,829.79h-85.02c-1.1,0-2-.9-2-2s.9-2,2-2h85.02c1.1,0,2,.9,2,2s-.9,2-2,2Z"/><path fill="#b1bec6" d="m175.46,556.33h-68.67c-1.1,0-2-.9-2-2s.9-2,2-2h68.67c1.1,0,2,.9,2,2s-.9,2-2,2Z"/><g opacity=".25"><path fill="#b1bec6" d="m795.1,255.76l-21.76,100.1-63.77,293.28c-2.86,13.16-15.85,21.51-29,18.65l-36.02-7.82v-126.61c0-21.08-17.1-38.19-38.19-38.19H197.97l13.13-60.61,8.81-40.67,54.63-251.3c2.86-13.16,15.85-21.51,29.01-18.64l67.14,14.6c-57.17,19.76-98.33,74.13-98.33,137.93,0,80.44,65.45,145.89,145.89,145.89,30.55,0,58.9-9.45,82.37-25.55l68.72,78.82c2.34,2.69,5.64,4.07,8.95,4.07,2.76,0,5.54-.95,7.78-2.92,4.94-4.3,5.46-11.8,1.15-16.73l-68.19-78.2c27.79-26.57,45.11-63.99,45.11-105.38s-17.49-79.15-45.49-105.76l257.8,56.04c13.16,2.86,21.51,15.84,18.65,29Z"/></g><path fill="#b1bec6" d="m685.79,670.36c-1.88,0-3.77-.2-5.65-.61l-37.59-8.16v-128.23c0-19.95-16.23-36.19-36.19-36.19H195.49l22.46-103.7,54.63-251.3c1.5-6.89,5.59-12.78,11.51-16.59,5.93-3.81,12.98-5.08,19.87-3.58l74.11,16.11-6.74,2.33c-58.01,20.05-96.98,74.72-96.98,136.04,0,79.34,64.55,143.89,143.89,143.89,29.12,0,57.22-8.71,81.24-25.19l1.47-1.01,69.9,80.16c1.87,2.15,4.59,3.38,7.44,3.38,2.39,0,4.68-.86,6.46-2.42,1.99-1.74,3.19-4.14,3.37-6.77.18-2.63-.68-5.16-2.41-7.14l-69.44-79.64,1.38-1.32c28.69-27.43,44.49-64.34,44.49-103.93s-15.93-76.82-44.87-104.3l-5.18-4.92,264.79,57.56c6.89,1.5,12.78,5.58,16.59,11.51,3.81,5.92,5.08,12.98,3.59,19.87l-21.76,100.1-63.77,293.28c-1.5,6.89-5.59,12.78-11.51,16.59-4.31,2.77-9.21,4.2-14.21,4.2Zm-39.24-12l34.44,7.48c5.84,1.27,11.82.19,16.85-3.04,5.03-3.23,8.5-8.23,9.77-14.07l63.77-293.28,21.76-100.1c1.27-5.84.19-11.83-3.04-16.85-3.23-5.03-8.23-8.49-14.07-9.76l-251.11-54.59c26.64,27.68,41.22,63.76,41.22,102.35s-15.73,77.45-44.35,105.5l66.94,76.77c2.43,2.78,3.64,6.35,3.38,10.04-.25,3.7-1.93,7.07-4.73,9.51-2.51,2.2-5.74,3.41-9.09,3.41-4.01,0-7.82-1.73-10.46-4.75l-67.56-77.48c-24.36,16.29-52.68,24.9-82.03,24.9-81.55,0-147.89-66.34-147.89-147.89,0-60.72,37.19-115.1,93.23-137.42l-60.47-13.15c-5.85-1.28-11.83-.2-16.86,3.04-5.03,3.23-8.5,8.23-9.77,14.07l-54.63,251.3-21.41,98.86h405.91c22.16,0,40.19,18.03,40.19,40.19v125Z"/><g opacity=".5"><path fill="#b1bec6" d="m926.33,472.34l-201.29,348.63c-6.73,11.67-21.64,15.66-33.3,8.93l-47.19-27.25v-142.7l36.01,7.82c13.16,2.86,26.14-5.48,29-18.64l63.77-293.28,144.06,83.18c11.67,6.73,15.66,21.63,8.93,33.3Z"/></g><path fill="#b1bec6" d="m703.88,835.18c-4.57,0-9.08-1.2-13.14-3.54l-48.19-27.82v-146.33l38.44,8.35c5.84,1.27,11.83.19,16.85-3.04,5.03-3.23,8.5-8.23,9.77-14.07l64.35-295.96,146.43,84.55c12.6,7.27,16.93,23.43,9.66,36.03h0s-201.29,348.63-201.29,348.63c-3.52,6.1-9.21,10.47-16.02,12.3-2.27.61-4.58.91-6.87.91Zm-57.33-33.68l46.19,26.67c5.18,2.99,11.2,3.78,16.98,2.23,5.78-1.55,10.6-5.25,13.59-10.43l201.29-348.63c6.17-10.69,2.49-24.4-8.2-30.57l-141.69-81.81-63.19,290.6c-1.5,6.89-5.59,12.78-11.51,16.59-5.93,3.81-12.98,5.08-19.87,3.58l-33.59-7.3v139.06Zm279.78-329.16h0,0Z"/><g><path fill="#b1bec6" d="m481.14,308.91c4.55,4.55,4.55,11.95,0,16.51l-16.11,16.1c-4.58,4.58-11.98,4.58-16.52,0l-28.46-28.43c-1.34-1.33-3.49-1.33-4.83,0l-28.43,28.43c-4.56,4.58-11.97,4.58-16.54,0l-16.1-16.1c-4.56-4.56-4.56-11.96,0-16.52l28.46-28.46c1.33-1.32,1.33-3.48,0-4.8l-30.85-30.87c-3.24-3.23-3.24-8.49,0-11.71l20.92-20.92c3.24-3.24,8.49-3.24,11.7-.01l30.85,30.87c1.34,1.33,3.49,1.33,4.83,0l28.46-28.46c4.55-4.56,11.96-4.56,16.52,0l16.11,16.11c4.56,4.56,4.56,11.96,0,16.52l-28.46,28.47c-1.34,1.32-1.34,3.48,0,4.8l28.46,28.47Z" opacity=".5"/><path fill="#b1bec6" d="m587.22,460.05l-68.18-78.2c27.78-26.57,45.11-63.99,45.11-105.38s-17.49-79.15-45.49-105.76c-26.17-24.86-61.55-40.13-100.4-40.13-16.65,0-32.65,2.81-47.56,7.96-57.17,19.77-98.33,74.13-98.33,137.93,0,80.44,65.45,145.89,145.89,145.89,30.54,0,58.9-9.44,82.36-25.55l68.73,78.82c2.34,2.69,5.64,4.06,8.94,4.06,2.76,0,5.54-.95,7.79-2.92,4.94-4.3,5.45-11.79,1.14-16.73Zm-168.97-61.41c-67.37,0-122.17-54.8-122.17-122.17s54.8-122.17,122.17-122.17,122.17,54.8,122.17,122.17-54.82,122.17-122.17,122.17Z" opacity=".5"/><path fill="#b1bec6" d="m578.29,481.7c-4.01,0-7.82-1.73-10.45-4.75l-67.56-77.49c-24.36,16.29-52.67,24.9-82.02,24.9-81.55,0-147.89-66.34-147.89-147.89,0-63.01,40.06-119.2,99.67-139.82,15.49-5.36,31.71-8.07,48.22-8.07,38.01,0,74.15,14.45,101.78,40.68,29.74,28.25,46.11,66.33,46.11,107.21s-15.73,77.44-44.35,105.5l66.93,76.76c2.44,2.79,3.64,6.37,3.38,10.06-.25,3.69-1.93,7.06-4.72,9.49-2.51,2.2-5.75,3.41-9.1,3.41Zm-77.33-87.54l69.9,80.17c1.87,2.15,4.58,3.38,7.43,3.38,2.39,0,4.68-.86,6.47-2.43,1.99-1.73,3.18-4.13,3.36-6.75.18-2.63-.67-5.17-2.41-7.16h0s-69.44-79.64-69.44-79.64l1.38-1.32c28.69-27.44,44.49-64.35,44.49-103.94s-15.93-76.82-44.87-104.31c-26.88-25.53-62.04-39.58-99.02-39.58-16.06,0-31.84,2.64-46.91,7.85-58.01,20.06-96.98,74.73-96.98,136.04,0,79.34,64.55,143.89,143.89,143.89,29.13,0,57.22-8.71,81.23-25.19l1.47-1.01Z"/><path fill="#b1bec6" d="m418.25,400.64c-68.47,0-124.17-55.7-124.17-124.17s55.7-124.17,124.17-124.17,124.17,55.7,124.17,124.17-55.7,124.17-124.17,124.17Zm0-244.34c-66.26,0-120.17,53.91-120.17,120.17s53.91,120.17,120.17,120.17,120.17-53.91,120.17-120.17-53.91-120.17-120.17-120.17Z"/><path fill="#b1bec6" d="m418.25,154.3c-67.37,0-122.17,54.8-122.17,122.17s54.8,122.17,122.17,122.17,122.17-54.8,122.17-122.17-54.82-122.17-122.17-122.17Zm34.43,126.14l28.46,28.47c4.55,4.55,4.55,11.95,0,16.51l-16.11,16.1c-4.58,4.58-11.98,4.58-16.52,0l-28.46-28.43c-1.34-1.33-3.49-1.33-4.83,0l-28.43,28.43c-4.56,4.58-11.97,4.58-16.54,0l-16.1-16.1c-4.56-4.56-4.56-11.96,0-16.52l28.46-28.46c1.33-1.32,1.33-3.48,0-4.8l-30.85-30.87c-3.24-3.23-3.24-8.49,0-11.71l20.92-20.92c3.24-3.24,8.49-3.24,11.7-.01l30.85,30.87c1.34,1.33,3.49,1.33,4.83,0l28.46-28.46c4.55-4.56,11.96-4.56,16.52,0l16.11,16.11c4.56,4.56,4.56,11.96,0,16.52l-28.46,28.47c-1.34,1.32-1.34,3.48,0,4.8Z" opacity=".25"/><path fill="#b1bec6" d="m418.25,400.64c-68.47,0-124.17-55.7-124.17-124.17s55.7-124.17,124.17-124.17,124.17,55.7,124.17,124.17-55.7,124.17-124.17,124.17Zm0-244.34c-66.26,0-120.17,53.91-120.17,120.17s53.91,120.17,120.17,120.17,120.17-53.91,120.17-120.17-53.91-120.17-120.17-120.17Z"/><path fill="#b1bec6" d="m456.75,346.95h-.03c-3.65,0-7.07-1.44-9.64-4.02l-28.45-28.43c-.55-.54-1.45-.54-2.01,0l-28.43,28.43c-2.58,2.59-6.02,4.02-9.67,4.02h0c-3.66,0-7.1-1.43-9.69-4.02l-16.1-16.1c-5.33-5.33-5.33-14.02,0-19.35l28.46-28.46c.27-.26.41-.61.41-.98s-.14-.72-.4-.98l-30.86-30.87c-1.94-1.94-3.01-4.52-3.01-7.27s1.07-5.34,3.01-7.27l20.92-20.92c1.94-1.94,4.53-3.02,7.28-3.02h0c2.74,0,5.31,1.07,7.24,3.01l30.85,30.86c.55.54,1.45.54,2.01,0l28.45-28.45c2.58-2.58,6.01-4.01,9.66-4.01h0c3.66,0,7.09,1.42,9.68,4.01l16.11,16.11c2.59,2.58,4.01,6.02,4.01,9.67s-1.42,7.09-4.01,9.67l-28.46,28.47c-.27.27-.42.61-.42.98s.14.71.41.97h.01s28.46,28.48,28.46,28.48c5.33,5.32,5.33,14,0,19.34l-16.12,16.1c-2.59,2.59-6.03,4.02-9.69,4.02Zm-39.12-36.85c1.38,0,2.77.52,3.82,1.57l28.46,28.44c1.82,1.83,4.24,2.84,6.82,2.85,2.62-.03,5.04-1.01,6.88-2.85l16.11-16.1c3.77-3.78,3.77-9.91,0-13.68l-28.45-28.46c-1.03-1.01-1.59-2.37-1.59-3.82s.57-2.81,1.6-3.83l28.44-28.46c1.83-1.83,2.84-4.26,2.84-6.85s-1.01-5.02-2.84-6.85l-16.11-16.11c-1.83-1.83-4.26-2.84-6.85-2.84h0c-2.59,0-5.01,1.01-6.83,2.84l-28.46,28.46c-2.11,2.1-5.54,2.1-7.65,0l-30.86-30.87c-1.18-1.18-2.74-1.83-4.42-1.83h0c-1.68,0-3.26.65-4.45,1.84l-20.92,20.92c-1.19,1.18-1.84,2.76-1.84,4.44s.65,3.26,1.84,4.44l30.86,30.87c1.02,1.01,1.58,2.36,1.58,3.81s-.56,2.8-1.59,3.82l-28.45,28.45c-3.77,3.78-3.77,9.92,0,13.69l16.1,16.1c1.84,1.83,4.27,2.85,6.86,2.85h0c2.59,0,5.02-1.01,6.84-2.84l28.44-28.44c1.06-1.05,2.45-1.57,3.83-1.57Z"/></g><g><path fill="#b1bec6" d="m838.67,504.31c-.33,0-.66-.08-.97-.25l-86.76-47.94c-.97-.53-1.32-1.75-.78-2.72.54-.97,1.75-1.32,2.72-.78l86.76,47.94c.97.53,1.32,1.75.78,2.72-.37.66-1.05,1.03-1.75,1.03Z"/><path fill="#b1bec6" d="m787.07,553.65c-.35,0-.7-.09-1.02-.28l-35.15-20.81c-.95-.56-1.27-1.79-.7-2.74.56-.95,1.79-1.26,2.74-.7l35.15,20.81c.95.56,1.27,1.79.7,2.74-.37.63-1.04.98-1.72.98Z"/><path fill="#b1bec6" d="m726.31,302.75c-.14,0-.28-.01-.42-.04l-129.61-27.35c-1.08-.23-1.77-1.29-1.54-2.37.23-1.08,1.29-1.77,2.37-1.54l129.61,27.35c1.08.23,1.77,1.29,1.54,2.37-.2.94-1.03,1.59-1.96,1.59Z"/><path fill="#b1bec6" d="m717.18,350.29c-.14,0-.28-.01-.42-.04l-129.61-27.35c-1.08-.23-1.77-1.29-1.54-2.37.23-1.08,1.29-1.77,2.37-1.54l129.61,27.35c1.08.23,1.77,1.29,1.54,2.37-.2.94-1.03,1.59-1.96,1.59Z"/><path fill="#b1bec6" d="m708.05,397.81c-.14,0-.28-.01-.42-.04l-129.61-27.35c-1.08-.23-1.77-1.29-1.54-2.37.23-1.08,1.28-1.77,2.37-1.54l129.61,27.35c1.08.23,1.77,1.29,1.54,2.37-.2.94-1.03,1.59-1.96,1.59Z"/><path fill="#b1bec6" d="m401.98,461.06c-.14,0-.28-.01-.42-.04l-129.61-27.35c-1.08-.23-1.77-1.29-1.54-2.37.23-1.08,1.29-1.77,2.37-1.54l129.61,27.35c1.08.23,1.77,1.29,1.54,2.37-.2.94-1.03,1.59-1.96,1.59Z"/><path fill="#b1bec6" d="m182.89,400.64c-.81,0-1.58-.5-1.88-1.31l-34.48-93.5c-.38-1.04.15-2.19,1.18-2.57,1.04-.38,2.19.15,2.57,1.18l34.48,93.5c.38,1.04-.15,2.19-1.18,2.57-.23.08-.46.12-.69.12Z"/><path fill="#b1bec6" d="m175.46,406.21c-.35,0-.7-.09-1.02-.28l-65.1-38.65c-.95-.56-1.26-1.79-.7-2.74.56-.95,1.79-1.26,2.74-.7l65.1,38.65c.95.56,1.26,1.79.7,2.74-.37.63-1.04.98-1.72.98Z"/></g><path fill="#b1bec6" d="m156.05,227.16c-9.33,0-16.93-7.59-16.93-16.93s7.59-16.93,16.93-16.93,16.93,7.59,16.93,16.93-7.59,16.93-16.93,16.93Zm0-29.86c-7.13,0-12.93,5.8-12.93,12.93s5.8,12.93,12.93,12.93,12.93-5.8,12.93-12.93-5.8-12.93-12.93-12.93Z"/><path fill="#b1bec6" d="m860.75,316.83c-8.75,0-15.88-7.12-15.88-15.88s7.12-15.87,15.88-15.87,15.88,7.12,15.88,15.87-7.12,15.88-15.88,15.88Zm0-27.75c-6.55,0-11.88,5.33-11.88,11.87s5.33,11.88,11.88,11.88,11.88-5.33,11.88-11.88-5.33-11.87-11.88-11.87Z"/><path fill="#b1bec6" d="m824.28,808.53c-9.76,0-17.7-7.94-17.7-17.7s7.94-17.7,17.7-17.7,17.7,7.94,17.7,17.7-7.94,17.7-17.7,17.7Zm0-31.41c-7.56,0-13.7,6.15-13.7,13.7s6.15,13.7,13.7,13.7,13.7-6.15,13.7-13.7-6.15-13.7-13.7-13.7Z"/><g><path fill="#b1bec6" d="m109.73,433.51c-1.3,1.3-2.55,2.64-3.78,4.02,4.54-1.91,9.53-2.96,14.77-2.96h90.37l6.19-28.59h-41.07c-25.97,0-49.47,10.53-66.49,27.54Z" opacity=".25"/><path fill="#b1bec6" d="m82.54,491.98c-.22,2.65-.34,5.32-.34,8.02s.12,5.38.34,8.03v-16.05Z" opacity=".25"/><path fill="#b1bec6" d="m176.23,217.92h81.94l16.38-75.33c2.86-13.16,15.85-21.51,29.01-18.64l67.13,14.6h.01c14.91-5.16,30.91-7.97,47.56-7.97,38.86,0,74.23,15.28,100.4,40.14h.01l241.17,52.43c9.7-3.39,20.13-5.23,30.99-5.23h32.96c25.97,0,49.47-10.53,66.49-27.54,17.01-17.02,27.54-40.52,27.54-66.49,0-51.93-42.11-94.03-94.03-94.03H176.23c-25.97,0-49.47,10.53-66.49,27.54-17.01,17.02-27.54,40.52-27.54,66.49,0,51.93,42.11,94.03,94.03,94.03Z" opacity=".25"/><path fill="#b1bec6" d="m823.77,782.1h-76.28l-22.45,38.88c-6.73,11.66-21.65,15.66-33.3,8.93l-47.19-27.25v25.13c0,21.1-17.09,38.19-38.19,38.19H120.73c-14.51,0-27.13-8.09-33.6-20.01-3.2,9.46-4.94,19.6-4.94,30.15,0,51.94,42.11,94.03,94.03,94.03h647.54c25.97,0,49.47-10.53,66.49-27.54,17.01-17.01,27.54-40.52,27.54-66.49,0-51.93-42.11-94.02-94.03-94.02Z" opacity=".25"/><path fill="#b1bec6" d="m860.32,586.67c11.27-4.76,21.42-11.65,29.94-20.17,17.01-17.02,27.54-40.52,27.54-66.49,0-3.94-.25-7.83-.72-11.65l-56.76,98.32Z" opacity=".25"/></g></svg>
